<svg width="20" height="16" viewBox="0 0 20 16" fill="none" xmlns="http://www.w3.org/2000/svg">
<path d="M15.5017 1.43334L10.0588 5.83086L4.4914 1.43334V1.43452L4.49813 1.44047V7.59817L9.99605 12.0907L15.5017 7.77163V1.43334Z" fill="#EA4335"/>
<path d="M16.9305 0.363652L15.5011 1.43331V7.77163L19.9989 4.19663V2.04301C19.9989 2.04301 19.453 -1.03285 16.9305 0.363652Z" fill="#FBBC05"/>
<path d="M15.5011 7.77163V15.9926H18.9484C18.9484 15.9926 19.9295 15.888 20 14.7304V4.19663L15.5011 7.77163Z" fill="#34A853"/>
<path d="M4.49838 15.9998L4.49813 7.59817L4.4914 7.59224L4.49838 15.9998Z" fill="#C5221F"/>
<path d="M4.4914 1.43452L3.06958 0.370644C0.547094 -1.02586 0 2.04883 0 2.04883V4.20237L4.4914 7.59224V1.43452Z" fill="#C5221F"/>
<path d="M4.4914 1.43452V7.59224L4.49813 7.59817V1.44047L4.4914 1.43452Z" fill="#C5221F"/>
<path d="M0 4.20397V14.7377C0.0695107 15.8966 1.0516 16 1.0516 16H4.49898L4.4914 7.59224L0 4.20397Z" fill="#4285F4"/>
</svg>
