<svg width="20" height="20" viewBox="0 0 20 20" fill="none" xmlns="http://www.w3.org/2000/svg">
<path d="M17 0H3C1.34315 0 0 1.34315 0 3V17C0 18.6569 1.34315 20 3 20H17C18.6569 20 20 18.6569 20 17V3C20 1.34315 18.6569 0 17 0Z" fill="#0077B5"/>
<path d="M5.54688 6.83594C6.3451 6.83594 6.99219 6.18885 6.99219 5.39062C6.99219 4.5924 6.3451 3.94531 5.54688 3.94531C4.74865 3.94531 4.10156 4.5924 4.10156 5.39062C4.10156 6.18885 4.74865 6.83594 5.54688 6.83594Z" fill="white"/>
<path d="M9.53125 7.57812V15.3125V7.57812ZM5.54688 7.57812V15.3125V7.57812Z" fill="white"/>
<path d="M9.53125 7.57812V15.3125M5.54688 7.57812V15.3125" stroke="white" stroke-width="3"/>
<path d="M10.7812 11.0156C10.7812 10.2344 11.2891 9.45312 12.1875 9.45312C13.125 9.45312 13.4766 10.1562 13.4766 11.2109V15.3125H16.0547V10.8984C16.0547 8.51562 14.8047 7.42188 13.0859 7.42188C11.7578 7.42188 11.0938 8.16406 10.7812 8.67188" fill="white"/>
</svg>
