<svg width="20" height="15" viewBox="0 0 20 15" fill="none" xmlns="http://www.w3.org/2000/svg">
<path d="M19.6402 1.62489C19.5905 1.52029 19.4481 1.42001 19.3502 1.34967C19.3481 1.3466 19.3455 1.34357 19.3434 1.34077C19.3455 1.34331 19.3471 1.34611 19.3492 1.34861C19.2335 1.26558 19.0874 1.20949 18.9142 1.19171L12.2433 0.501281C11.6418 0.438787 10.9493 0.847634 10.7006 1.40932L5.72784 12.6717C5.62472 12.9043 5.61526 13.1285 5.68124 13.3154C5.70167 13.8535 6.21936 14.2689 6.72659 14.3215C6.81401 14.3306 6.90143 14.3395 6.98885 14.3486C7.47776 14.3992 7.96616 14.4497 8.45455 14.5005C9.78095 14.6376 11.1069 14.7747 12.4328 14.9124C13.1206 14.9835 13.7927 15.1323 14.3827 14.7394C15.037 14.305 15.3239 13.5869 15.7227 12.6389C17.2182 9.08347 18.2657 6.56884 19.824 3.04126C19.9119 2.84116 20.0046 2.64591 19.9998 2.41787C19.9998 2.41761 19.9998 2.41814 19.9998 2.41787C19.9888 2.11852 19.8469 1.86585 19.6402 1.62489ZM10.5467 12.8949C10.4253 13.1532 10.0892 13.3399 9.79873 13.3111C9.50873 13.2827 9.37162 13.0498 9.49303 12.7916C9.61396 12.5341 9.94791 12.3472 10.2379 12.3759C10.5279 12.4041 10.6672 12.6377 10.5467 12.8949ZM14.2742 11.7566L7.55518 11.0611L11.6261 1.84603L18.3446 2.5418L14.2742 11.7566Z" fill="#EDFDFE"/>
<path d="M3.06555 0.517009L2.55992 0C1.54493 0.932677 0.759772 2.12867 0.336258 3.51946C-0.0877637 4.91147 -0.0971778 6.32788 0.231571 7.64629L0.945553 7.47768C0.64614 6.2766 0.655007 4.98973 1.04133 3.72158C1.42711 2.45422 2.14113 1.36741 3.06555 0.517009Z" fill="#EDFDFE"/>
<path d="M2.99121 4.28073C2.67977 5.30508 2.67246 6.34895 2.9148 7.32074L3.62879 7.15164C3.41629 6.29692 3.42254 5.38254 3.69633 4.48261C3.97062 3.58192 4.47785 2.81024 5.1353 2.20614L4.62964 1.6881C3.88211 2.37524 3.30371 3.25535 2.99121 4.28073Z" fill="#EDFDFE"/>
<path d="M6.35179 5.24357C6.51405 4.71034 6.81557 4.25556 7.20655 3.89523L6.70089 3.37772C6.22194 3.81878 5.84769 4.38222 5.64718 5.04146C5.44671 5.70013 5.4446 6.37101 5.60007 6.99315L6.31405 6.8248C6.18796 6.31697 6.18952 5.77635 6.35179 5.24357Z" fill="#EDFDFE"/>
</svg>
