<svg width="20" height="20" viewBox="0 0 20 20" fill="none" xmlns="http://www.w3.org/2000/svg">
<path d="M5.2881 17.1892L5.61505 17.3514C6.97753 18.1622 8.50337 18.5405 10.0293 18.5405C14.8249 18.5405 18.7486 14.6487 18.7486 9.8919C18.7486 7.62166 17.8221 5.40543 16.1873 3.78379C14.5524 2.16214 12.3725 1.24326 10.0293 1.24326C5.23365 1.24326 1.30988 5.13514 1.36441 9.94599C1.36441 11.5676 1.85488 13.1352 2.67228 14.4865L2.89025 14.8108L2.01839 18L5.2881 17.1892Z" fill="#00E676"/>
<path d="M17.1137 2.91891C15.2608 1.02706 12.6996 0 10.0837 0C4.52522 0 0.0565446 4.48647 0.110997 9.94591C0.110997 11.6757 0.601458 13.3514 1.41895 14.8649L0.00201416 20L5.2881 18.6486C6.75949 19.4595 8.3943 19.8379 10.0293 19.8379C15.5333 19.8379 20.002 15.3513 20.002 9.89198C20.002 7.24327 18.9665 4.75676 17.1137 2.91891ZM10.0837 18.1622C8.61235 18.1622 7.14096 17.7839 5.88755 17.0272L5.5606 16.865L2.39987 17.6757L3.21728 14.5947L2.99931 14.2703C0.601458 10.4326 1.74589 5.35134 5.66958 2.97292C9.59327 0.594585 14.6614 1.72974 17.0592 5.62163C19.457 9.51351 18.3126 14.5406 14.389 16.919C13.1355 17.7298 11.6096 18.1622 10.0837 18.1622V18.1622ZM14.8794 12.1623L14.2799 11.892C14.2799 11.892 13.4081 11.5136 12.8631 11.2433C12.8085 11.2433 12.7541 11.1892 12.6996 11.1892C12.536 11.1892 12.4271 11.2433 12.3181 11.2974C12.3181 11.2974 12.2636 11.3514 11.5007 12.2163C11.4461 12.3244 11.3371 12.3785 11.2282 12.3785H11.1736C11.1192 12.3785 11.0102 12.3244 10.9557 12.2704L10.6832 12.1623C10.0837 11.892 9.53882 11.5676 9.10281 11.1352C8.99383 11.0271 8.83031 10.919 8.72133 10.8109C8.33985 10.4326 7.95837 10.0001 7.68596 9.51359L7.63143 9.40549C7.57697 9.3514 7.57697 9.29739 7.52244 9.18929C7.52244 9.08119 7.52244 8.97309 7.57697 8.91901C7.57697 8.91901 7.79494 8.64872 7.95837 8.48661C8.06744 8.37843 8.12189 8.21632 8.23087 8.10822C8.33985 7.94604 8.39438 7.72984 8.33985 7.56765C8.2854 7.29736 7.63143 5.83791 7.46799 5.51361C7.35893 5.35142 7.25003 5.29741 7.08651 5.24332H6.48707C6.37801 5.24332 6.2691 5.29741 6.16004 5.29741L6.10551 5.35142C5.99653 5.40551 5.88755 5.51361 5.77856 5.56762C5.66958 5.6758 5.61505 5.78382 5.50607 5.89199C5.12459 6.37848 4.90662 6.97306 4.90662 7.56765C4.90662 8.00005 5.01561 8.43252 5.17912 8.81091L5.23365 8.97309C5.72411 10.0001 6.37801 10.919 7.25003 11.7298L7.46799 11.946C7.63143 12.1082 7.79494 12.2163 7.90392 12.3784C9.04836 13.3515 10.3562 14.0541 11.8276 14.4325C11.9911 14.4865 12.2091 14.4865 12.3726 14.5406H12.9175C13.19 14.5406 13.517 14.4325 13.735 14.3244C13.8984 14.2163 14.0074 14.2163 14.1164 14.1082L14.2255 14.0001C14.3344 13.892 14.4434 13.838 14.5524 13.7299C14.6614 13.6218 14.7704 13.5137 14.8249 13.4055C14.9339 13.1893 14.9883 12.919 15.0429 12.6488V12.2704C15.0429 12.2704 14.9883 12.2163 14.8794 12.1623Z" fill="white"/>
</svg>
